<?xml version="1.0" encoding="iso-8859-1"?>
<!-- Uploaded to: SVG Repo, www.svgrepo.com, Generator: SVG Repo Mixer Tools -->
<svg fill="white" height="800px" width="800px" version="1.1" id="Layer_1" xmlns="http://www.w3.org/2000/svg" xmlns:xlink="http://www.w3.org/1999/xlink" 
	 viewBox="0 0 512.001 512.001" xml:space="preserve">
<g>
	<g>
		<path d="M372.434,2.82c-1.447-1.784-3.622-2.82-5.92-2.82H145.487c-2.35,0-4.568,1.083-6.013,2.937
			c-1.444,1.854-1.953,4.27-1.379,6.547l61.333,243.485c1.925,14.299,8.737,27.371,19.125,37.111
			c-3.601,4.366-5.766,9.957-5.766,16.044v20.636c0,7.408,6.027,13.435,13.435,13.435c0.659,0,1.073,0.334,1.306,0.614
			s0.484,0.749,0.361,1.397l-4.439,23.525c-2.013,10.671-3.035,21.588-3.035,32.447v88.754c0,13.823,11.246,25.069,25.069,25.069
			h36.044c13.823,0,25.069-11.246,25.069-25.069V398.74c0-10.72-0.995-21.499-2.959-32.036l-4.562-24.5
			c-0.12-0.647,0.131-1.116,0.363-1.395c0.232-0.279,0.646-0.612,1.351-0.612c7.408,0,13.435-6.027,13.435-13.435v-20.636
			c0-7.29-3.109-13.866-8.067-18.48c9.629-10.081,15.678-23.156,16.981-37.251l42.921-203.649c0.004-0.019,0.008-0.038,0.012-0.057
			l7.902-37.493C374.447,6.947,373.882,4.605,372.434,2.82z M298.978,325.042h-0.001c-4.381,0.454-8.415,2.593-11.265,6.023
			c-3.229,3.885-4.55,8.962-3.624,13.929l4.562,24.501c1.792,9.618,2.7,19.458,2.7,29.245v88.192c0,5.417-4.407,9.824-9.824,9.824
			h-36.044c-5.417,0-9.824-4.407-9.824-9.824v-88.754c0-9.913,0.932-19.879,2.771-29.621l4.439-23.524
			c0.938-4.972-0.376-10.058-3.605-13.953c-2.841-3.427-6.861-5.568-11.232-6.034v-18.922c0-5.52,4.49-10.01,10.01-10.01h50.926
			c0.748,0,1.474,0.088,2.175,0.245c0.008,0.002,0.016,0.004,0.025,0.006c4.464,1.006,7.81,4.995,7.81,9.759V325.042z
			 M308.124,247.695c-0.064,0.307-0.11,0.617-0.136,0.93c-1.072,12.677-7.217,24.298-16.98,32.335
			c-0.674-0.054-1.353-0.089-2.041-0.089h-50.926c-2.061,0-4.063,0.254-5.983,0.723c-9.663-7.613-16.009-18.723-17.569-31.012
			c-0.039-0.304-0.096-0.605-0.17-0.902l-49.592-196.88h46.121v140.164c0,12.036,9.792,21.829,21.828,21.829
			c12.036,0,21.829-9.792,21.829-21.829V101.61c0-3.63,2.953-6.584,6.584-6.584c3.63,0,6.584,2.953,6.584,6.584v50.7
			c0,12.036,9.792,21.829,21.828,21.829c12.036,0,21.829-9.792,21.829-21.829V52.799h37.874L308.124,247.695z M261.088,79.781
			c-12.036,0-21.829,9.792-21.829,21.828v91.353c0,3.63-2.953,6.584-6.584,6.584c-3.63,0-6.584-2.953-6.584-6.584V52.799h69.991
			v99.511c0,3.63-2.953,6.584-6.584,6.584s-6.584-2.953-6.584-6.584v-50.7C282.917,89.573,273.125,79.781,261.088,79.781z
			 M352.416,37.554H160.887l-5.62-22.309h201.851L352.416,37.554z"/>
	</g>
</g>
</svg>